<svg width="28" height="47" viewBox="0 0 28 47" fill="none" xmlns="http://www.w3.org/2000/svg">
<path d="M27.3461 11.6613V34.7613C27.3461 41.1357 22.1705 46.3113 15.7961 46.3113H11.6711C5.29665 46.3113 0.121094 41.1357 0.121094 34.7613V11.6613C0.121094 5.28682 5.29665 0.111267 11.6711 0.111267H15.7961C22.1705 0.111267 27.3461 5.28682 27.3461 11.6613Z" fill="#00051B"/>
<g filter="url(#filter0_b_1759_40909)">
<path d="M25.8461 11.6613V34.7613C25.8461 40.3073 21.3421 44.8113 15.7961 44.8113H11.6711C6.12508 44.8113 1.62109 40.3073 1.62109 34.7613V11.6613C1.62109 6.11525 6.12508 1.61127 11.6711 1.61127H15.7961C21.3421 1.61127 25.8461 6.11525 25.8461 11.6613Z" stroke="url(#paint0_linear_1759_40909)" stroke-opacity="0.65" stroke-width="3"/>
</g>
<path d="M13.9395 13.1331C13.9395 15.2863 13.9395 17.9214 13.9395 20.662" stroke="#2A32FC" stroke-width="3.3" stroke-linecap="round" stroke-linejoin="round"/>
<defs>
<filter id="filter0_b_1759_40909" x="-31.8539" y="-31.8637" width="91.1746" height="110.15" filterUnits="userSpaceOnUse" color-interpolation-filters="sRGB">
<feFlood flood-opacity="0" result="BackgroundImageFix"/>
<feGaussianBlur in="BackgroundImageFix" stdDeviation="15.9875"/>
<feComposite in2="SourceAlpha" operator="in" result="effect1_backgroundBlur_1759_40909"/>
<feBlend mode="normal" in="SourceGraphic" in2="effect1_backgroundBlur_1759_40909" result="shape"/>
</filter>
<linearGradient id="paint0_linear_1759_40909" x1="3.81103" y1="2.09387" x2="41.947" y2="11.426" gradientUnits="userSpaceOnUse">
<stop stop-color="#537FD2"/>
<stop offset="0.902547" stop-color="#537FD2" stop-opacity="0"/>
</linearGradient>
</defs>
</svg>
