<svg width="440" height="201" viewBox="0 0 440 201" fill="none" xmlns="http://www.w3.org/2000/svg">
<g style="mix-blend-mode:color-dodge">
<rect width="7.76557" height="74.5495" transform="matrix(-0.708861 0.705348 0.708861 0.705348 363.175 118.553)" fill="black"/>
<ellipse cx="3.88279" cy="37.2747" rx="3.88279" ry="37.2747" transform="matrix(-0.708861 0.705348 0.708861 0.705348 363.175 118.553)" fill="url(#paint0_radial_58_398)"/>
</g>
<g style="mix-blend-mode:color-dodge">
<rect width="7.76557" height="74.5495" transform="matrix(-0.708861 -0.705348 -0.708861 0.705348 416.021 124.031)" fill="black"/>
<ellipse cx="3.88278" cy="37.2747" rx="3.88278" ry="37.2747" transform="matrix(-0.708861 -0.705348 -0.708861 0.705348 416.021 124.031)" fill="url(#paint1_radial_58_398)"/>
</g>
<g style="mix-blend-mode:color-dodge">
<rect width="6.34887" height="60.9491" transform="matrix(-0.708861 0.705348 0.708861 0.705348 249.853 19.2561)" fill="black"/>
<ellipse cx="3.17443" cy="30.4746" rx="3.17443" ry="30.4746" transform="matrix(-0.708861 0.705348 0.708861 0.705348 249.853 19.2561)" fill="url(#paint2_radial_58_398)"/>
</g>
<g style="mix-blend-mode:color-dodge">
<rect width="6.34886" height="60.9491" transform="matrix(-0.708861 -0.705348 -0.708861 0.705348 293.057 23.7344)" fill="black"/>
<ellipse cx="3.17443" cy="30.4746" rx="3.17443" ry="30.4746" transform="matrix(-0.708861 -0.705348 -0.708861 0.705348 293.057 23.7344)" fill="url(#paint3_radial_58_398)"/>
</g>
<g style="mix-blend-mode:color-dodge">
<rect width="4.14872" height="39.8277" transform="matrix(-0.708861 0.705348 0.708861 0.705348 15.5867 144.583)" fill="black"/>
<ellipse cx="2.07436" cy="19.9138" rx="2.07436" ry="19.9138" transform="matrix(-0.708861 0.705348 0.708861 0.705348 15.5867 144.583)" fill="url(#paint4_radial_58_398)"/>
</g>
<g style="mix-blend-mode:color-dodge">
<rect width="4.14871" height="39.8277" transform="matrix(-0.708861 -0.705348 -0.708861 0.705348 43.8188 147.509)" fill="black"/>
<ellipse cx="2.07436" cy="19.9138" rx="2.07436" ry="19.9138" transform="matrix(-0.708861 -0.705348 -0.708861 0.705348 43.8188 147.509)" fill="url(#paint5_radial_58_398)"/>
</g>
<defs>
<radialGradient id="paint0_radial_58_398" cx="0" cy="0" r="1" gradientUnits="userSpaceOnUse" gradientTransform="translate(3.88279 37.2747) rotate(90) scale(37.2747 3.88279)">
<stop offset="0.0364583" stop-color="#FFF1E4"/>
<stop offset="1" stop-color="#3A71FF" stop-opacity="0"/>
</radialGradient>
<radialGradient id="paint1_radial_58_398" cx="0" cy="0" r="1" gradientUnits="userSpaceOnUse" gradientTransform="translate(3.88278 37.2747) rotate(90) scale(37.2747 3.88278)">
<stop offset="0.0364583" stop-color="#FFF1E4"/>
<stop offset="1" stop-color="#3A71FF" stop-opacity="0"/>
</radialGradient>
<radialGradient id="paint2_radial_58_398" cx="0" cy="0" r="1" gradientUnits="userSpaceOnUse" gradientTransform="translate(3.17443 30.4746) rotate(90) scale(30.4746 3.17443)">
<stop offset="0.0364583" stop-color="#FFF1E4"/>
<stop offset="1" stop-color="#3A71FF" stop-opacity="0"/>
</radialGradient>
<radialGradient id="paint3_radial_58_398" cx="0" cy="0" r="1" gradientUnits="userSpaceOnUse" gradientTransform="translate(3.17443 30.4746) rotate(90) scale(30.4746 3.17443)">
<stop offset="0.0364583" stop-color="#FFF1E4"/>
<stop offset="1" stop-color="#3A71FF" stop-opacity="0"/>
</radialGradient>
<radialGradient id="paint4_radial_58_398" cx="0" cy="0" r="1" gradientUnits="userSpaceOnUse" gradientTransform="translate(2.07436 19.9138) rotate(90) scale(19.9138 2.07436)">
<stop offset="0.0364583" stop-color="#FFF1E4"/>
<stop offset="1" stop-color="#3A71FF" stop-opacity="0"/>
</radialGradient>
<radialGradient id="paint5_radial_58_398" cx="0" cy="0" r="1" gradientUnits="userSpaceOnUse" gradientTransform="translate(2.07436 19.9138) rotate(90) scale(19.9138 2.07436)">
<stop offset="0.0364583" stop-color="#FFF1E4"/>
<stop offset="1" stop-color="#3A71FF" stop-opacity="0"/>
</radialGradient>
</defs>
</svg>
