<svg width="499" height="195" viewBox="0 0 499 195" fill="none" xmlns="http://www.w3.org/2000/svg">
<g style="mix-blend-mode:color-dodge">
<rect width="9.03026" height="86.6905" transform="matrix(-0.707107 -0.707107 -0.703585 0.710611 471.051 33.8689)" fill="black"/>
<ellipse cx="4.51513" cy="43.3452" rx="4.51513" ry="43.3452" transform="matrix(-0.707107 -0.707107 -0.703585 0.710611 471.051 33.8689)" fill="url(#paint0_radial_60_409)"/>
</g>
<g style="mix-blend-mode:color-dodge">
<rect width="9.03026" height="86.6905" transform="matrix(0.703585 -0.710611 -0.707107 -0.707107 464.834 95.3359)" fill="black"/>
<ellipse cx="4.51513" cy="43.3452" rx="4.51513" ry="43.3452" transform="matrix(0.703585 -0.710611 -0.707107 -0.707107 464.834 95.3359)" fill="url(#paint1_radial_60_409)"/>
</g>
<g style="mix-blend-mode:color-dodge">
<rect width="5.76886" height="55.381" transform="matrix(-0.707107 0.707107 0.710611 0.703585 22.4087 134.356)" fill="black"/>
<ellipse cx="2.88443" cy="27.6905" rx="2.88443" ry="27.6905" transform="matrix(-0.707107 0.707107 0.710611 0.703585 22.4087 134.356)" fill="url(#paint2_radial_60_409)"/>
</g>
<g style="mix-blend-mode:color-dodge">
<rect width="5.76885" height="55.381" transform="matrix(-0.710611 -0.703585 -0.707107 0.707107 61.676 138.327)" fill="black"/>
<ellipse cx="2.88443" cy="27.6905" rx="2.88443" ry="27.6905" transform="matrix(-0.710611 -0.703585 -0.707107 0.707107 61.676 138.327)" fill="url(#paint3_radial_60_409)"/>
</g>
<defs>
<radialGradient id="paint0_radial_60_409" cx="0" cy="0" r="1" gradientUnits="userSpaceOnUse" gradientTransform="translate(4.51513 43.3452) rotate(90) scale(43.3452 4.51513)">
<stop offset="0.0364583" stop-color="#FFF1E4"/>
<stop offset="1" stop-color="#3A71FF" stop-opacity="0"/>
</radialGradient>
<radialGradient id="paint1_radial_60_409" cx="0" cy="0" r="1" gradientUnits="userSpaceOnUse" gradientTransform="translate(4.51513 43.3452) rotate(90) scale(43.3452 4.51513)">
<stop offset="0.0364583" stop-color="#FFF1E4"/>
<stop offset="1" stop-color="#3A71FF" stop-opacity="0"/>
</radialGradient>
<radialGradient id="paint2_radial_60_409" cx="0" cy="0" r="1" gradientUnits="userSpaceOnUse" gradientTransform="translate(2.88443 27.6905) rotate(90) scale(27.6905 2.88443)">
<stop offset="0.0364583" stop-color="#FFF1E4"/>
<stop offset="1" stop-color="#3A71FF" stop-opacity="0"/>
</radialGradient>
<radialGradient id="paint3_radial_60_409" cx="0" cy="0" r="1" gradientUnits="userSpaceOnUse" gradientTransform="translate(2.88443 27.6905) rotate(90) scale(27.6905 2.88443)">
<stop offset="0.0364583" stop-color="#FFF1E4"/>
<stop offset="1" stop-color="#3A71FF" stop-opacity="0"/>
</radialGradient>
</defs>
</svg>
